<svg xmlns="http://www.w3.org/2000/svg" viewBox="0 0 64 64" fill="none">
  <!-- Gesture Control: Hand with motion/sensor waves -->
  <!-- Simplified hand shape -->
  <path d="M28 52 L28 28 C28 26, 24 26, 24 28 L24 36" stroke="#e4e5f0" stroke-width="2.5" stroke-linecap="round" stroke-linejoin="round" fill="none"/>
  <path d="M28 32 L28 26 C28 24, 32 24, 32 26 L32 34" stroke="#e4e5f0" stroke-width="2.5" stroke-linecap="round" fill="none"/>
  <path d="M32 30 L32 26 C32 24, 36 24, 36 26 L36 34" stroke="#e4e5f0" stroke-width="2.5" stroke-linecap="round" fill="none"/>
  <path d="M36 30 L36 28 C36 26, 40 26, 40 28 L40 38" stroke="#e4e5f0" stroke-width="2.5" stroke-linecap="round" fill="none"/>
  <!-- Palm -->
  <path d="M24 36 C22 42, 24 48, 28 52 L38 52 C42 48, 42 42, 40 38" stroke="#e4e5f0" stroke-width="2.5" stroke-linecap="round" fill="none"/>
  <!-- Sensor waves -->
  <path d="M18 20 A16 16 0 0 1 46 20" stroke="#e63946" stroke-width="2" stroke-linecap="round" fill="none"/>
  <path d="M14 14 A22 22 0 0 1 50 14" stroke="#e63946" stroke-width="2" stroke-linecap="round" fill="none"/>
</svg>
